<svg width="18" height="20" viewBox="0 0 18 20" fill="none" xmlns="http://www.w3.org/2000/svg">
    <g transform="scale(0.9) translate(0.8, 0.8)">
        <path fill-rule="evenodd" clip-rule="evenodd" d="M11.2243 2.05526C11.0209 2.00643 10.7932 2 10.0118 2H7.80002C6.94344 2 6.36115 2.00078 5.91106 2.03755C5.47265 2.07337 5.24844 2.1383 5.09204 2.21799C4.71572 2.40974 4.40976 2.7157 4.21801 3.09202C4.13832 3.24842 4.0734 3.47262 4.03758 3.91104C4.0008 4.36113 4.00002 4.94342 4.00002 5.8V9C4.00002 9.55229 3.55231 10 3.00002 10C2.44774 10 2.00002 9.55229 2.00002 9L2.00002 5.7587C2.00001 4.95373 2 4.28937 2.04422 3.74818C2.09014 3.18608 2.18871 2.66938 2.436 2.18404C2.81949 1.43139 3.43141 0.819469 4.18406 0.435976C4.6694 0.188685 5.1861 0.0901209 5.7482 0.0441957C6.28939 -2.16812e-05 6.95375 -1.11903e-05 7.75873 1.56512e-06L10.0118 2.04195e-06C10.0462 2.04195e-06 10.0802 -1.41705e-05 10.1137 -3.01446e-05C10.7487 -0.000332221 11.2285 -0.000560626 11.6912 0.110522C12.0993 0.208509 12.4895 0.370127 12.8474 0.589441C13.2531 0.838068 13.5922 1.17749 14.041 1.62672C14.0647 1.65043 14.0887 1.67445 14.113 1.69878L16.3012 3.88701C16.3256 3.91134 16.3496 3.93534 16.3733 3.95903C16.8225 4.40782 17.162 4.74693 17.4106 5.15265C17.6299 5.51054 17.7915 5.90072 17.8895 6.30886C18.0006 6.77155 18.0004 7.25135 18.0001 7.88634C18 7.91987 18 7.95382 18 7.98823V12.2413C18 13.0463 18 13.7106 17.9558 14.2518C17.9099 14.8139 17.8113 15.3306 17.5641 15.816C17.1806 16.5686 16.5686 17.1805 15.816 17.564C15.3307 17.8113 14.8139 17.9099 14.2519 17.9558C13.7107 18 13.0463 18 12.2413 18H11C10.4477 18 10 17.5523 10 17C10 16.4477 10.4477 16 11 16H12.2C13.0566 16 13.6389 15.9992 14.089 15.9625C14.5274 15.9266 14.7516 15.8617 14.908 15.782C15.2843 15.5903 15.5903 15.2843 15.782 14.908C15.8617 14.7516 15.9267 14.5274 15.9625 14.089C15.9992 13.6389 16 13.0566 16 12.2V7.98823C16 7.20686 15.9936 6.97916 15.9448 6.77575C15.8958 6.57168 15.815 6.37659 15.7053 6.19765C15.596 6.01929 15.4395 5.85373 14.887 5.30122L12.6988 3.113C12.1463 2.56048 11.9807 2.40402 11.8024 2.29472C11.6234 2.18506 11.4283 2.10426 11.2243 2.05526Z" fill="white"/>
        <path fill-rule="evenodd" clip-rule="evenodd" d="M5.00002 10.4C5.25828 10.4 5.48757 10.5653 5.56923 10.8103L6.47437 13.5257L9.18976 14.4308C9.43477 14.5125 9.60003 14.7417 9.60003 15C9.60003 15.2583 9.43477 15.4875 9.18976 15.5692L6.47437 16.4743L5.56923 19.1897C5.48757 19.4347 5.25828 19.6 5.00002 19.6C4.74177 19.6 4.51248 19.4347 4.43081 19.1897L3.52568 16.4743L0.810288 15.5692C0.565282 15.4875 0.400024 15.2583 0.400024 15C0.400024 14.7417 0.565282 14.5125 0.810288 14.4308L3.52568 13.5257L4.43081 10.8103C4.51248 10.5653 4.74177 10.4 5.00002 10.4Z" fill="white"/>
        <path fill-rule="evenodd" clip-rule="evenodd" d="M11 1C11.5523 1 12 1.44772 12 2V6H16C16.5523 6 17 6.44772 17 7C17 7.55229 16.5523 8 16 8H11C10.4477 8 10 7.55229 10 7V2C10 1.44772 10.4477 1 11 1Z" fill="white"/>
    </g>
</svg>
