<svg width="32" height="32" viewBox="0 0 32 32" fill="none" xmlns="http://www.w3.org/2000/svg">
<rect width="31.1562" height="31.1562" rx="3.73875" fill="#00AD95"/>
<path d="M9.03656 23.1749C8.35113 23.1749 7.76954 22.9361 7.29181 22.4583C6.81408 21.9806 6.57522 21.399 6.57522 20.7136C6.57522 20.0281 6.81408 19.4466 7.29181 18.9688C7.76954 18.4703 8.35113 18.2211 9.03656 18.2211C9.722 18.2211 10.3036 18.4703 10.7813 18.9688C11.2798 19.4466 11.5291 20.0281 11.5291 20.7136C11.5291 21.399 11.2798 21.9806 10.7813 22.4583C10.3036 22.9361 9.722 23.1749 9.03656 23.1749ZM15.9126 7.47217H20.3991L19.9941 9.40385C20.7003 8.78073 21.3338 8.303 21.8946 7.97067C22.4762 7.63833 23.0993 7.47217 23.764 7.47217C24.4286 7.47217 24.9479 7.70065 25.3218 8.15761C25.7164 8.61456 25.9138 9.16499 25.9138 9.80889C25.9138 10.4112 25.7164 10.9409 25.3218 11.3979C24.9271 11.8548 24.3767 12.0833 23.6705 12.0833C23.2135 12.0833 22.902 11.9794 22.7358 11.7717C22.5904 11.5433 22.4762 11.2213 22.3931 10.8059C22.3308 10.5359 22.2685 10.3385 22.2062 10.2139C22.1439 10.0893 22.0296 10.027 21.8634 10.027C21.4273 10.027 21.0534 10.1204 20.7418 10.3074C20.451 10.4736 20.0668 10.7747 19.589 11.2109L17.0965 23.0503H12.61L15.9126 7.47217Z" fill="white"/>
</svg>
