<svg width="300" height="300" viewBox="0 0 300 300" fill="none" xmlns="http://www.w3.org/2000/svg">
<rect width="300" height="300" rx="36" fill="#00AD95"/>
<path d="M86.9961 228.2C80.3961 228.2 74.7961 225.9 70.1961 221.3C65.5961 216.7 63.2961 211.1 63.2961 204.5C63.2961 197.9 65.5961 192.3 70.1961 187.7C74.7961 182.9 80.3961 180.5 86.9961 180.5C93.5961 180.5 99.1961 182.9 103.796 187.7C108.596 192.3 110.996 197.9 110.996 204.5C110.996 211.1 108.596 216.7 103.796 221.3C99.1961 225.9 93.5961 228.2 86.9961 228.2ZM153.205 77H196.405L192.505 95.6C199.305 89.6 205.405 85 210.805 81.8C216.405 78.6 222.405 77 228.805 77C235.205 77 240.205 79.2 243.805 83.6C247.605 88 249.505 93.3 249.505 99.5C249.505 105.3 247.605 110.4 243.805 114.8C240.005 119.2 234.705 121.4 227.905 121.4C223.505 121.4 220.505 120.4 218.905 118.4C217.505 116.2 216.405 113.1 215.605 109.1C215.005 106.5 214.405 104.6 213.805 103.4C213.205 102.2 212.105 101.6 210.505 101.6C206.305 101.6 202.705 102.5 199.705 104.3C196.905 105.9 193.205 108.8 188.605 113L164.605 227H121.405L153.205 77Z" fill="white"/>
</svg>
